<?xml version="1.0" standalone="no"?>
<!DOCTYPE svg PUBLIC "-//W3C//DTD SVG 20010904//EN"
 "http://www.w3.org/TR/2001/REC-SVG-20010904/DTD/svg10.dtd">
<svg version="1.0" xmlns="http://www.w3.org/2000/svg"
 width="1417.000000pt" height="849.000000pt" viewBox="0 0 1417.000000 849.000000"
 preserveAspectRatio="xMidYMid meet">
<metadata>
Created by potrace 1.16, written by Peter Selinger 2001-2019
</metadata>
<g transform="translate(0.000000,849.000000) scale(0.100000,-0.100000)"
fill="#000000" stroke="none">
<path d="M0 4245 l0 -4245 7085 0 7085 0 0 4245 0 4245 -7085 0 -7085 0 0
-4245z m4705 3601 c0 -30 -4 -52 -9 -49 -5 3 -4 -2 1 -11 11 -21 -9 -139 -62
-356 -45 -184 -121 -448 -144 -503 -10 -23 -28 -85 -41 -137 -12 -52 -29 -100
-36 -106 -21 -17 -17 -21 15 -16 21 3 34 -3 50 -20 l22 -23 -23 -7 c-20 -7
-20 -7 4 -4 51 6 58 -14 113 -324 47 -264 89 -360 136 -304 10 13 10 20 -3 42
-11 20 -14 55 -13 132 1 86 8 130 39 243 39 148 58 194 82 204 8 3 13 12 10
19 -5 13 83 94 102 94 16 0 46 -49 66 -110 10 -30 25 -65 32 -77 35 -56 48
-539 18 -693 -8 -46 -14 -99 -13 -120 3 -32 -5 -46 -62 -113 -36 -43 -76 -98
-89 -124 -14 -25 -36 -58 -50 -72 -86 -91 -160 -186 -179 -228 -13 -26 -27
-56 -32 -65 -5 -10 -9 -24 -9 -31 0 -8 -9 -22 -19 -31 -11 -10 -34 -53 -51
-97 -32 -78 -32 -82 -25 -182 8 -116 23 -166 106 -344 18 -40 37 -73 41 -73 4
0 8 -7 8 -15 0 -8 5 -15 10 -15 6 0 10 -6 10 -12 0 -7 9 -24 19 -37 l18 -24
-76 -57 c-42 -31 -107 -87 -145 -125 -87 -85 -195 -141 -257 -132 -61 8 -85
30 -128 119 -105 219 -110 237 -120 462 -6 137 -5 165 10 210 16 45 23 53 66
73 47 22 48 23 16 23 -36 0 -38 2 -24 29 6 9 11 60 12 112 2 137 12 190 63
361 28 95 49 189 56 248 32 312 135 1008 151 1025 5 5 9 18 9 29 0 27 -19 8
-25 -25 -28 -143 -88 -492 -88 -516 0 -7 -4 -13 -9 -13 -4 0 -8 -6 -8 -12 0
-7 -16 -51 -36 -98 -33 -78 -66 -172 -203 -580 -75 -222 -167 -451 -196 -487
-16 -20 -31 -30 -40 -26 -13 5 -14 2 -4 -21 7 -14 15 -26 19 -26 11 0 19 -91
10 -115 -5 -12 -39 -46 -77 -75 -37 -29 -128 -113 -201 -187 -73 -73 -141
-137 -150 -142 -27 -15 -68 -1 -112 36 -51 44 -64 69 -83 163 -20 97 -14 236
18 400 13 69 34 181 45 250 11 69 27 152 35 185 8 33 14 74 15 91 0 32 14 44
51 44 16 0 18 5 14 33 -6 35 30 158 67 231 11 21 35 78 54 125 31 80 33 83 34
47 0 -66 13 -31 20 56 7 89 19 119 189 483 l70 150 278 5 c153 3 253 7 223 8
-30 2 -141 2 -247 2 -181 -1 -243 4 -243 19 0 13 403 785 493 946 66 117 131
209 190 267 l47 48 35 -22 c42 -27 42 -36 11 -153 -31 -113 -41 -175 -28 -175
11 0 31 46 73 172 18 56 36 95 42 91 6 -3 7 -1 4 4 -4 6 0 24 8 39 8 16 15 35
15 43 0 8 3 11 7 7 4 -4 7 -31 8 -60z m4017 -167 c23 -32 69 -134 124 -273 48
-121 116 -288 152 -371 35 -82 108 -251 162 -375 53 -124 105 -250 115 -280
10 -30 45 -116 77 -190 72 -164 263 -661 273 -710 4 -19 27 -75 51 -124 37
-77 41 -91 28 -103 -20 -20 -18 -28 15 -55 16 -14 58 -57 93 -97 l65 -71 16
-100 c23 -134 21 -198 -8 -347 -51 -263 -111 -418 -191 -498 -57 -57 -184 -77
-254 -40 -38 19 -230 207 -249 243 -9 17 -8 39 4 99 13 66 14 119 7 348 -8
252 -11 276 -36 360 -15 49 -37 107 -47 128 -11 21 -43 116 -70 210 -66 227
-90 295 -167 467 -36 80 -65 151 -65 158 0 6 -3 12 -7 12 -4 0 -5 13 -2 29 7
49 -17 305 -48 505 -29 192 -84 624 -116 919 -18 167 -14 207 23 207 10 0 35
-23 55 -51z m-2163 10 c10 -11 27 -41 36 -67 10 -26 31 -73 47 -104 32 -65 23
-76 -19 -23 -39 49 -48 44 -19 -12 16 -33 31 -93 45 -193 12 -80 31 -167 41
-195 25 -63 86 -269 94 -315 3 -19 -2 -71 -11 -115 -34 -163 -6 -692 44 -816
11 -29 12 -42 3 -58 -8 -16 -7 -43 4 -111 9 -49 21 -145 27 -212 5 -68 14
-141 19 -163 13 -53 12 -152 0 -175 -7 -14 -1 -37 27 -97 33 -71 36 -88 40
-182 2 -64 9 -114 18 -132 8 -15 15 -37 15 -48 0 -11 3 -22 8 -24 4 -3 7 -149
7 -325 0 -360 2 -350 -77 -374 -25 -7 -34 -14 -26 -19 7 -4 15 -3 19 3 4 6 12
7 18 4 6 -4 11 -2 11 4 0 6 5 8 10 5 6 -3 10 -1 10 6 0 7 3 10 6 6 13 -12 43
30 59 83 9 30 19 104 22 163 4 70 9 103 15 93 10 -18 45 -176 59 -266 5 -36
16 -88 24 -117 30 -104 14 -348 -28 -428 -9 -17 -8 -18 5 -7 13 10 16 8 22
-19 3 -17 6 -57 6 -88 0 -31 7 -98 15 -150 9 -51 13 -101 11 -110 -9 -28 -21
-538 -18 -733 3 -173 1 -197 -27 -340 -16 -84 -35 -191 -41 -238 -14 -107 -45
-267 -58 -300 -21 -55 -69 -59 -100 -9 -7 11 -37 142 -67 292 -29 150 -70 340
-89 422 -19 83 -45 215 -56 295 -12 80 -26 167 -31 194 -5 27 -9 65 -9 85 0
20 -18 106 -40 191 -32 127 -41 180 -46 291 -5 103 -4 138 5 144 9 5 6 14 -12
34 -28 29 -52 126 -62 250 -3 41 -12 105 -21 142 l-16 69 -41 0 c-109 1 -305
21 -351 36 -94 31 -180 147 -211 284 -26 118 -2 584 40 766 26 111 95 221 179
283 25 19 44 36 42 39 -9 8 -95 -59 -136 -105 l-42 -48 7 40 c4 22 8 204 10
405 4 490 9 542 64 661 11 25 52 163 90 305 38 142 92 327 120 411 28 83 71
236 96 340 56 234 78 301 116 352 33 47 66 54 98 20z m1185 -180 c59 -46 82
-108 146 -389 56 -243 105 -435 145 -565 19 -60 50 -168 70 -240 20 -71 52
-161 70 -200 54 -111 65 -191 65 -457 0 -128 -5 -281 -10 -340 -7 -68 -7 -129
-1 -165 5 -32 8 -59 6 -61 -2 -2 -28 19 -58 47 -59 53 -97 77 -97 63 0 -5 18
-21 40 -36 24 -16 61 -59 94 -109 57 -86 78 -151 81 -252 1 -27 5 -61 9 -75 4
-14 11 -116 17 -228 10 -201 7 -251 -27 -425 -8 -41 -61 -97 -117 -122 -33
-16 -43 -24 -32 -28 8 -4 15 -3 15 2 0 5 12 14 28 20 29 13 112 86 112 100 0
5 6 14 14 20 10 8 16 42 20 99 3 48 8 120 12 160 l6 72 38 0 c37 0 39 -2 45
-37 4 -21 8 -45 10 -53 5 -24 8 172 6 365 -1 99 2 195 8 213 8 25 6 41 -9 75
-12 29 -25 113 -40 267 -19 189 -22 247 -14 360 11 167 -1 490 -21 537 -29 68
-35 38 -35 -168 0 -190 -10 -282 -32 -295 -5 -3 -11 -4 -14 -1 -16 16 -33 222
-39 467 -3 157 -10 373 -15 480 -12 246 -12 434 -1 484 5 21 24 54 43 73 90
94 93 89 213 -327 62 -213 174 -541 237 -690 22 -52 80 -181 129 -286 84 -181
119 -283 119 -347 0 -15 6 -40 14 -55 8 -15 21 -50 29 -77 l15 -51 -37 4 -36
3 46 -21 c60 -28 92 -90 105 -205 3 -27 12 -75 20 -106 8 -31 14 -88 14 -125
0 -38 9 -113 20 -167 35 -173 25 -306 -32 -429 -46 -100 -78 -124 -174 -133
-43 -4 -119 -5 -168 -2 -55 4 -114 2 -148 -5 -60 -12 -77 -25 -33 -25 14 0 25
4 25 9 0 6 9 8 20 5 10 -3 20 -1 22 4 2 5 18 7 36 3 32 -6 32 -7 32 -64 0 -57
-22 -190 -59 -350 -10 -47 -22 -128 -25 -180 -9 -126 -36 -186 -122 -271 -76
-75 -85 -98 -15 -40 27 23 54 41 61 41 16 0 6 -73 -19 -150 -10 -30 -21 -90
-25 -132 -5 -52 -19 -111 -46 -183 -26 -71 -46 -148 -60 -238 -11 -72 -25
-150 -30 -172 -5 -22 -12 -87 -16 -145 -3 -58 -11 -121 -18 -140 -21 -55 -57
-185 -82 -297 -13 -57 -51 -187 -84 -290 -33 -104 -67 -226 -75 -273 -13 -72
-19 -89 -45 -113 -40 -36 -66 -34 -105 7 -49 52 -59 105 -60 316 -1 179 -30
510 -45 510 -19 0 -19 150 0 260 14 80 18 98 16 57 -2 -35 1 -53 6 -45 5 7 7
72 4 143 -2 77 -1 110 3 80 6 -38 8 -18 10 85 1 74 8 176 16 225 8 50 15 131
15 180 0 50 5 130 11 180 8 67 8 112 -1 182 -11 84 -11 95 5 119 l17 26 29
-43 c35 -53 37 -46 5 20 -40 83 -59 209 -53 342 l5 116 -67 7 c-36 3 -91 5
-121 5 l-55 -2 69 -8 c38 -5 71 -10 72 -12 1 -1 -2 -24 -7 -52 -4 -27 -13
-121 -19 -207 -11 -145 -14 -162 -42 -214 -19 -37 -26 -59 -19 -63 6 -4 15
-52 21 -107 5 -54 15 -128 20 -164 8 -48 8 -88 0 -145 -6 -44 -15 -201 -20
-350 -7 -218 -13 -296 -33 -405 -14 -74 -28 -171 -32 -215 -4 -44 -13 -120
-20 -170 -8 -49 -19 -137 -25 -195 -20 -199 -38 -246 -92 -238 -32 4 -60 64
-92 200 -33 139 -94 399 -106 453 -5 22 -11 119 -14 215 -6 224 -44 604 -71
720 -7 30 -11 78 -10 105 2 28 6 121 10 208 l8 158 29 -6 28 -7 -39 64 c-62
99 -79 163 -83 315 -3 123 -2 130 15 122 9 -6 21 -7 26 -4 5 3 11 0 13 -7 3
-8 9 -8 24 0 19 11 19 11 0 12 -11 0 -39 9 -62 21 -72 34 -81 67 -89 309 -4
127 -2 243 5 305 6 55 15 145 20 200 11 136 76 291 153 367 46 47 47 56 2 28
-19 -12 -35 -19 -35 -16 0 4 -13 0 -29 -9 l-29 -15 18 53 c21 60 42 260 39
362 -5 148 7 278 35 369 27 87 28 106 10 208 -2 16 7 79 21 140 l26 113 -21
14 c-16 11 -20 24 -20 72 0 60 39 235 84 378 21 67 28 117 37 259 11 196 25
257 77 351 52 94 111 123 166 80z m-1972 -295 c44 -29 63 -62 74 -129 4 -28 8
-309 8 -625 1 -379 5 -615 14 -693 6 -66 9 -130 6 -143 -6 -23 -8 -24 -23 -9
-21 18 -40 20 -42 3 -1 -7 -1 -74 0 -148 4 -187 -31 -453 -64 -492 l-23 -28
-29 45 c-25 40 -43 56 -43 39 0 -6 17 -46 45 -109 23 -51 36 -153 42 -333 5
-157 4 -176 -13 -208 -25 -46 -98 -100 -149 -109 -67 -11 -196 -17 -213 -9 -9
4 -21 9 -27 9 -61 10 -183 116 -224 195 -39 75 -51 197 -47 480 4 357 18 422
93 436 61 11 74 23 26 24 -53 0 -60 12 -34 54 13 21 21 50 21 78 0 32 10 64
34 109 103 194 147 338 271 884 147 648 152 668 181 693 31 27 59 24 116 -14z
m2862 -404 c46 -329 62 -460 56 -460 -4 0 -25 48 -48 108 -34 89 -43 126 -51
222 -19 221 -24 337 -15 436 l8 99 12 -110 c6 -60 23 -193 38 -295z m1693 11
c12 -10 29 -33 37 -52 9 -19 27 -54 41 -79 34 -63 32 -68 -22 -73 l-48 -3 52
-2 c40 -2 55 -7 62 -21 23 -42 129 -389 155 -506 24 -110 64 -390 71 -500 9
-133 79 -407 111 -431 16 -13 104 -258 104 -291 0 -16 6 -23 19 -23 45 0 53
-95 42 -474 -7 -217 -24 -276 -95 -327 -46 -34 -77 -44 -108 -35 -50 13 -51
15 -24 135 39 170 47 261 36 381 -5 58 -13 139 -16 181 -6 66 -9 76 -24 72
-23 -6 -34 27 -25 74 6 32 -15 118 -47 193 -6 14 -17 40 -24 58 -8 17 -20 47
-28 65 -71 161 -225 615 -315 930 l-72 247 13 133 13 132 50 6 50 5 -45 5 -45
4 -3 94 c-2 60 1 98 9 107 16 19 50 17 76 -5z m183 -62 c12 -16 28 -52 35 -79
15 -55 12 -59 -53 -62 -29 -1 -25 -3 18 -7 l54 -6 18 -75 c47 -204 90 -515
102 -735 5 -99 5 -98 -25 90 -12 72 -30 168 -41 215 -30 130 -125 424 -170
523 -36 80 -39 91 -28 118 23 55 59 62 90 18z m-1006 -24 c30 -39 69 -144 90
-245 l14 -65 1 49 c1 58 9 55 27 -11 7 -27 13 -38 13 -26 1 12 -3 33 -9 47
-10 28 13 126 30 126 5 0 7 6 4 14 -3 7 2 39 11 70 12 41 21 56 34 56 22 0 33
-21 70 -134 17 -49 32 -91 35 -94 3 -2 -4 -16 -14 -30 -32 -40 -23 -44 15 -5
l35 36 -6 -64 c-5 -56 -26 -149 -55 -243 -9 -28 -8 -29 10 -12 43 39 64 114
71 258 3 75 11 143 17 150 12 13 13 18 13 43 0 8 11 22 24 30 20 13 30 14 69
3 l45 -12 18 -79 c11 -49 20 -72 24 -61 5 14 13 8 43 -31 20 -26 42 -66 48
-89 69 -266 151 -555 199 -701 33 -100 66 -212 75 -250 27 -117 63 -229 122
-373 59 -146 83 -221 83 -264 0 -14 6 -29 13 -32 9 -5 9 -7 0 -12 -7 -3 -23
-14 -35 -24 -23 -18 -23 -18 19 -7 23 6 44 9 47 6 13 -12 28 -192 28 -329 0
-178 -21 -305 -70 -413 -30 -65 -47 -81 -104 -97 -41 -12 -80 22 -83 75 -4 63
-74 113 -168 119 -23 1 -24 2 -11 31 67 154 99 296 115 508 11 153 3 204 -36
247 -31 34 -50 75 -64 135 -11 50 -22 89 -61 220 -17 55 -23 114 -30 280 -9
207 -26 389 -55 575 -29 182 -68 400 -72 396 -2 -2 12 -100 32 -217 53 -321
65 -447 75 -754 6 -186 14 -302 24 -345 22 -94 63 -210 82 -232 13 -13 14 -21
5 -31 -14 -18 -4 -27 31 -27 15 0 27 -3 26 -7 0 -5 2 -16 7 -27 4 -10 5 -74 2
-142 -18 -350 -79 -576 -188 -693 l-41 -44 -55 7 c-66 8 -105 32 -180 116 -47
52 -55 65 -45 79 6 9 31 54 54 101 l43 85 -2 225 c-2 302 -32 457 -99 512 -13
10 -36 61 -58 130 -21 62 -44 123 -52 135 -8 12 -14 27 -14 33 0 6 -17 47 -39
93 -73 155 -149 322 -209 457 -33 74 -82 182 -109 240 l-50 105 8 80 c4 44 20
149 36 233 l28 152 36 0 c30 0 41 -6 63 -35z m-5759 -147 c-4 -13 -40 -93 -80
-178 -40 -85 -87 -189 -104 -230 -18 -41 -34 -77 -37 -80 -18 -17 29 285 60
387 37 124 36 123 107 123 58 0 60 -1 54 -22z m-246 -473 c-6 -60 -20 -130
-30 -155 l-18 -45 0 190 c-1 189 15 350 42 425 11 31 12 15 15 -135 2 -93 -2
-219 -9 -280z m7331 146 c54 -37 133 -230 146 -354 3 -31 9 -55 14 -52 4 3 14
-34 21 -83 20 -123 15 -389 -10 -634 -11 -113 -21 -224 -21 -247 0 -33 -3 -41
-19 -41 -14 0 -24 17 -43 73 -23 68 -95 291 -124 384 -18 55 -50 216 -63 313
-19 131 -53 483 -52 533 1 55 21 96 60 120 28 18 53 15 91 -12z m-7446 -505
c-45 -103 -70 -142 -60 -94 3 12 8 57 11 98 9 100 61 340 87 400 1 3 4 -63 5
-147 l4 -151 -47 -106z m1765 -93 c-17 -49 -35 -124 -40 -168 -10 -81 -25
-141 -40 -161 -9 -11 -36 -121 -49 -199 -9 -56 4 -371 20 -474 6 -36 18 -97
27 -134 l16 -69 -64 -59 c-35 -32 -82 -67 -104 -78 -22 -10 -51 -30 -64 -44
-31 -34 -47 -26 -111 53 -67 84 -72 95 -124 253 -42 124 -44 138 -44 242 1
167 43 262 126 282 19 5 38 15 40 22 3 9 0 11 -7 7 -6 -4 -26 -12 -43 -16 -28
-9 -29 -8 -16 8 8 9 19 28 25 42 6 14 54 81 108 150 53 69 106 143 117 165 18
36 233 265 250 265 3 0 -7 -39 -23 -87z m-979 -169 c-10 -51 -43 -174 -70
-254 -12 -35 -28 -150 -35 -250 -10 -144 -16 -181 -36 -201 -25 -25 -54 -229
-45 -319 4 -36 11 -114 16 -175 6 -60 17 -132 25 -160 9 -27 12 -51 8 -52 -27
-9 -75 -39 -72 -44 2 -4 -3 -15 -12 -25 -9 -11 -22 -29 -28 -41 -19 -38 18
-29 91 21 57 39 66 42 75 28 8 -14 -2 -26 -61 -70 -39 -30 -90 -65 -114 -79
l-43 -25 -47 24 c-42 21 -52 34 -89 108 -27 53 -48 114 -57 162 -8 43 -20 87
-27 100 -29 53 -19 282 11 263 5 -3 11 -1 15 5 3 5 0 11 -7 11 -7 1 14 5 47
10 82 12 101 34 119 134 14 77 33 134 153 445 31 80 68 181 83 225 15 44 44
109 64 143 20 35 36 69 36 75 0 6 2 8 5 5 3 -2 0 -31 -5 -64z m-570 -1080 c0
-67 32 -212 75 -340 25 -74 45 -136 45 -139 0 -3 -6 -5 -13 -5 -7 0 -28 -16
-47 -35 -44 -46 -71 -45 -137 7 -82 63 -103 106 -122 257 l-16 127 42 28 c24
15 69 56 100 91 60 66 73 67 73 9z m2278 -277 c25 -55 141 -202 142 -179 0 4
6 0 13 -9 7 -9 15 -16 20 -17 30 -3 67 -15 67 -22 0 -5 16 -6 35 -3 19 3 35 2
35 -3 0 -5 39 -9 86 -9 95 -1 104 -6 104 -66 0 -20 7 -54 16 -75 32 -76 7
-311 -45 -427 -33 -73 -33 -94 0 -32 17 33 40 70 52 82 l20 23 59 -163 c78
-213 78 -214 78 -272 1 -27 5 -70 10 -95 5 -25 12 -108 15 -185 7 -143 52
-602 61 -617 3 -4 9 -68 14 -141 5 -72 16 -215 25 -317 18 -193 16 -352 -5
-408 -7 -18 -25 -39 -41 -48 -26 -13 -32 -13 -58 1 -43 22 -58 48 -92 158 -16
54 -53 157 -80 230 -28 73 -62 166 -76 207 -31 91 -105 271 -133 322 -11 21
-29 90 -40 153 -11 64 -26 144 -34 178 -8 34 -26 114 -40 177 -14 63 -37 165
-50 225 -14 61 -32 151 -41 200 -8 50 -19 107 -24 128 -9 39 -2 47 19 22 7 -8
20 -15 28 -15 11 0 7 9 -15 33 -27 29 -87 132 -182 312 -14 28 -102 279 -139
400 -17 55 -44 140 -62 190 -40 116 -36 172 14 199 18 9 50 35 72 56 27 26 53
41 84 47 l45 9 7 -92 c5 -70 14 -107 36 -157z m-729 202 c27 -36 78 -69 97
-62 8 3 14 0 14 -6 0 -6 7 -8 15 -5 8 4 15 1 15 -6 0 -9 10 -11 30 -6 17 3 30
2 30 -2 0 -4 52 -6 116 -5 l115 1 -5 -36 c-6 -35 13 -114 58 -242 14 -40 62
-210 71 -250 2 -8 4 -17 5 -20 1 -3 2 -8 1 -12 0 -5 3 -8 7 -8 5 0 9 -6 10
-12 1 -15 10 -53 12 -53 1 0 2 -17 4 -37 2 -20 8 -44 15 -52 17 -21 5 -37 -25
-32 -32 6 -39 -22 -31 -124 9 -110 53 -366 75 -431 21 -61 22 -97 2 -151 -23
-62 12 -875 44 -1016 9 -40 16 -94 16 -120 0 -47 31 -132 48 -132 5 0 19 -22
32 -50 21 -45 22 -58 17 -157 -4 -59 -11 -142 -16 -183 -5 -41 -15 -118 -21
-170 -13 -109 -45 -223 -69 -244 -9 -8 -38 -26 -65 -39 -60 -30 -80 -24 -118
36 -33 53 -51 116 -83 292 -31 169 -64 300 -103 417 -17 48 -40 129 -52 180
-11 51 -30 116 -40 143 -29 75 -68 230 -76 299 -9 85 -49 269 -74 341 -12 33
-32 119 -45 191 -28 152 -61 287 -80 324 -22 42 -47 149 -54 228 l-7 72 31 0
30 1 -37 22 c-47 28 -75 77 -83 147 -3 30 -13 74 -21 97 -9 24 -13 47 -10 52
5 8 19 247 18 321 0 43 29 194 43 220 7 14 15 48 18 75 2 28 18 81 36 119 17
38 31 74 31 80 0 13 20 36 30 36 3 0 16 -14 29 -31z m4036 -87 c0 -4 39 -45
87 -91 48 -46 86 -87 83 -91 -3 -4 5 -30 17 -56 29 -66 27 -177 -6 -358 -20
-105 -25 -157 -20 -207 6 -73 -2 -93 -64 -161 l-26 -28 34 0 33 0 -6 -147 c-5
-97 -13 -172 -26 -218 -23 -84 -38 -185 -46 -320 -8 -139 -60 -520 -95 -700
-31 -161 -64 -385 -57 -392 3 -2 8 18 12 44 4 26 25 143 47 258 61 326 111
666 138 940 5 61 19 147 30 193 11 47 24 154 30 250 6 97 17 183 25 205 44
112 69 462 42 595 -13 65 -12 72 2 70 9 -2 22 -9 30 -16 7 -7 22 -10 32 -7 11
4 19 2 19 -4 0 -6 11 -11 25 -11 14 0 25 5 25 11 0 7 10 9 25 5 14 -4 25 -2
25 3 0 5 9 7 20 4 12 -3 20 0 20 6 0 7 5 9 10 6 6 -3 10 -1 10 5 0 6 5 8 10 5
6 -3 10 -1 10 5 0 6 4 9 8 6 4 -2 27 8 50 24 l43 29 33 -37 c19 -21 51 -80 74
-137 22 -55 56 -138 76 -185 46 -111 69 -281 60 -449 -7 -121 -13 -141 -46
-141 -14 0 -18 -5 -14 -18 4 -10 -1 -77 -9 -148 -8 -71 -15 -178 -15 -238 0
-99 -4 -123 -46 -268 -25 -88 -52 -198 -60 -244 -8 -46 -34 -171 -58 -277 -24
-105 -46 -209 -50 -229 -4 -21 -11 -38 -17 -38 -5 0 -7 -10 -4 -23 7 -27 -23
-169 -104 -492 -33 -132 -80 -341 -105 -465 -49 -244 -64 -295 -102 -353 -19
-28 -31 -37 -53 -37 -39 0 -100 27 -122 53 -44 52 -92 288 -109 537 -5 80 -14
195 -20 255 -13 148 -14 192 -5 245 4 25 5 42 1 39 -11 -10 -54 -289 -70 -454
-24 -234 -35 -297 -65 -351 -30 -56 -52 -64 -92 -35 -15 12 -34 21 -42 21 -15
0 -49 34 -66 67 -15 29 -14 33 5 33 11 0 14 5 10 16 -3 8 -13 43 -21 77 -47
198 -55 263 -35 283 11 11 2 236 -21 579 -6 83 -19 285 -29 450 -10 165 -23
316 -29 335 -28 96 -43 489 -22 570 5 19 12 92 15 162 5 91 12 138 25 170 30
68 121 590 121 692 0 68 4 69 149 64 56 -1 101 0 101 4 0 4 7 5 15 2 8 -4 15
-1 15 6 0 6 5 8 10 5 12 -7 55 33 89 83 20 29 36 35 36 14z m-4377 -123 c132
-29 140 -36 120 -103 -8 -27 -12 -119 -13 -276 0 -257 15 -369 60 -465 13 -27
26 -70 30 -95 13 -82 52 -244 88 -360 19 -63 49 -185 66 -270 18 -85 45 -202
61 -260 17 -58 39 -156 50 -217 11 -62 40 -181 64 -265 93 -322 99 -355 92
-523 -20 -518 -53 -770 -108 -848 -23 -33 -89 -66 -129 -67 -62 0 -98 90 -189
480 -12 52 -55 211 -96 354 -76 267 -119 450 -108 468 4 6 2 13 -3 17 -6 3
-43 161 -83 351 -89 425 -137 643 -190 870 -30 125 -40 191 -38 232 3 50 0 60
-19 73 -21 15 -23 24 -23 104 0 118 27 387 50 491 28 133 69 239 99 258 14 9
39 26 54 39 32 26 87 30 165 12z m-319 -186 c-72 -244 -99 -402 -98 -558 1
-127 9 -182 23 -177 17 7 26 -23 26 -88 0 -35 9 -107 19 -160 11 -52 27 -135
37 -185 9 -49 39 -169 66 -265 27 -96 60 -229 74 -295 13 -66 28 -135 34 -154
6 -22 6 -49 0 -76 -14 -64 -91 -280 -101 -283 -5 -2 -9 -11 -9 -20 0 -33 -52
-185 -94 -274 -57 -122 -165 -316 -220 -392 -49 -68 -93 -112 -150 -150 -21
-14 -36 -26 -32 -26 8 0 -25 -64 -82 -160 -48 -80 -130 -172 -174 -196 -30
-15 -98 -19 -98 -5 0 19 -31 20 -50 1 -11 -11 -32 -23 -47 -26 -16 -4 -38 -14
-51 -22 -29 -19 -87 -10 -118 19 -47 44 -74 186 -96 515 -17 251 -2 471 57
844 8 52 19 160 25 239 10 131 19 171 40 171 4 0 12 -75 19 -167 11 -156 20
-269 41 -513 l8 -95 -2 116 -2 117 50 6 c28 3 113 6 190 6 l138 0 -3 -282 c-3
-180 -1 -264 5 -232 5 27 8 151 8 277 0 261 -12 234 113 240 63 3 61 3 -22 5
l-93 2 0 108 c0 59 -5 191 -12 293 -13 207 -4 326 47 594 50 258 65 394 54
474 -7 52 -7 77 0 84 15 15 14 27 -3 27 -32 0 -30 31 15 177 6 18 20 74 33
125 27 108 78 224 127 288 33 44 35 45 94 46 68 1 155 31 200 69 17 13 31 24
32 25 1 0 -7 -30 -18 -67z m5594 2 c24 -5 46 -2 66 8 l31 15 65 -71 c127 -140
180 -282 215 -569 13 -99 10 -118 -17 -118 -10 0 -13 -5 -8 -17 4 -10 11 -62
17 -115 8 -85 7 -100 -6 -114 -19 -18 -21 -105 -6 -199 38 -242 33 -506 -15
-709 -38 -164 -63 -279 -70 -318 l-7 -38 -57 -2 c-53 -1 -54 -2 -11 -5 25 -3
49 -8 53 -12 5 -5 -3 -71 -17 -147 -25 -137 -46 -406 -46 -585 0 -144 -29
-187 -118 -174 -61 9 -76 20 -126 90 -57 79 -88 142 -151 305 -29 74 -69 175
-89 224 -21 48 -44 114 -52 147 -14 55 -14 64 10 178 14 66 39 173 55 238 17
65 40 168 51 228 12 61 39 180 60 265 21 85 41 196 45 245 6 82 17 168 49 373
6 40 17 76 24 81 24 15 32 79 33 263 0 141 -4 203 -16 250 -16 59 -77 217
-116 298 -24 49 -7 54 61 20 31 -16 73 -31 93 -35z m207 8 c0 13 78 -18 120
-46 76 -53 129 -107 160 -166 17 -31 50 -80 74 -109 44 -55 129 -215 166 -313
15 -41 18 -63 11 -81 -6 -17 -4 -40 9 -78 37 -112 51 -683 20 -830 -5 -25 -9
-115 -10 -201 0 -86 -3 -217 -7 -292 l-6 -137 -230 0 c-127 0 -228 -2 -226 -4
2 -3 105 -6 228 -7 216 -2 223 -2 231 -23 4 -11 16 -147 25 -301 19 -320 26
-385 19 -175 -5 162 -22 430 -29 474 l-5 29 75 -5 75 -5 -1 206 c0 113 -4 215
-9 226 -5 12 -9 -67 -9 -197 l-1 -218 -64 0 -65 0 4 68 c3 37 10 171 16 297 7
160 16 255 30 311 11 46 20 123 20 175 1 65 4 82 8 54 5 -35 8 -38 17 -21 7
12 14 15 18 7 6 -9 24 -186 27 -261 0 -23 1 -23 9 -5 7 16 9 14 9 -15 1 -39
22 -192 46 -340 39 -244 45 -298 56 -488 14 -275 -11 -682 -51 -832 -24 -90
-81 -110 -184 -65 -41 18 -65 37 -88 70 -33 46 -42 52 -53 35 -8 -14 -55 -12
-82 3 -71 39 -172 176 -293 395 l-62 113 6 72 c11 115 43 292 106 587 32 151
63 318 69 370 12 99 25 607 21 839 -1 88 2 131 8 127 22 -14 23 20 3 172 -21
157 -90 423 -111 430 -6 2 -10 10 -10 18 0 8 -4 14 -10 14 -5 0 -10 6 -10 13
0 7 -24 40 -52 73 -29 32 -45 53 -35 45 9 -7 17 -11 17 -8z m-6169 -87 c-90
-171 -180 -476 -172 -584 1 -7 6 -10 11 -7 13 8 13 -177 0 -320 -6 -60 -27
-202 -47 -315 -32 -188 -35 -221 -34 -390 0 -102 6 -267 13 -367 l13 -183
-187 0 -188 0 0 323 c-1 291 -6 435 -16 446 -2 2 -5 -72 -6 -165 -1 -191 -14
-130 -16 81 -1 120 13 279 18 205 2 -35 3 -34 11 10 4 25 8 71 8 103 1 62 31
240 62 373 18 76 17 111 -2 124 -4 3 1 25 12 49 10 24 19 49 19 56 0 22 84
188 127 251 23 34 54 88 68 119 48 109 187 241 265 253 13 2 27 5 29 8 2 2 15
4 27 4 23 0 23 -1 -15 -74z m6580 37 c44 -3 81 -12 91 -21 10 -8 51 -78 92
-156 41 -78 85 -160 97 -183 22 -39 23 -42 6 -60 -14 -16 -14 -21 -3 -34 8 -9
21 -93 35 -239 38 -388 52 -491 81 -620 33 -143 36 -144 15 -4 -17 116 -18
134 -6 134 11 0 66 -173 80 -253 6 -31 26 -108 45 -170 67 -216 71 -240 71
-492 0 -249 -11 -323 -57 -385 -20 -27 -90 -70 -114 -70 -6 0 -15 78 -22 183
-7 100 -19 238 -27 307 -110 920 -156 1260 -174 1312 -22 62 -26 94 -12 100
14 5 -33 175 -73 268 -42 96 -166 288 -220 339 -33 32 -49 60 -26 46 6 -3 10
-1 10 5 0 6 5 8 10 5 6 -3 10 0 10 7 0 11 2 11 9 0 4 -8 38 -15 82 -19z
m-6837 -69 c3 -7 -2 -18 -11 -25 -28 -24 -99 -123 -152 -214 -29 -49 -69 -116
-88 -147 -32 -54 -83 -200 -83 -239 0 -10 5 -19 10 -21 7 -2 3 -44 -10 -117
-37 -202 -86 -602 -110 -896 -6 -71 -22 -220 -35 -330 -13 -110 -31 -278 -39
-374 -9 -96 -17 -176 -20 -178 -10 -11 -76 28 -98 58 -32 43 -36 57 -54 154
-17 96 -18 236 -3 377 12 113 22 156 77 328 33 104 37 112 42 80 l6 -35 6 40
c3 22 18 103 33 180 37 200 82 474 94 585 15 128 40 267 58 314 9 26 11 42 4
50 -16 19 87 238 148 316 43 54 60 68 108 85 64 24 110 28 117 9z"/>
</g>
</svg>
